<?xml version="1.0" encoding="UTF-8"?>
<!-- Created with Inkscape (http://www.inkscape.org/) -->
<svg width="242.03mm" height="251.45mm" version="1.1" viewBox="0 0 242.03 251.45" xmlns="http://www.w3.org/2000/svg">
 <g transform="translate(-36.82 -2.1043)">
  <path d="m154.98 10.873c-3.0234 0-6.4247 0.74842-8.9757 2.099l2e-3 4.3e-4c-3.3305 1.9121-3.8974 4.3645-1.0866 5.6115l-9.6609 6.6718c-2.055-0.72739-4.8657-0.62386-7.6529 0.18679l-1.559-5.7571c1.1338-0.47838 2.2204-1.039 3.2125-1.6833 3.9446-2.4108 4.6528-4.8219 1.7003-5.3831-2.6691-0.47838-7.7472 0.91466-11.55 3.0969-3.7084 2.2862-4.9367 4.7592-2.3149 5.3827 1.6771 0.51923 4.4407 0.1869 7.2515-0.76907l1.5352 5.6948c-1.37 0.54044-2.7163 1.2471-3.8973 2.12-4.1336 3.1383-4.8893 7.004-1.5824 8.6874 3.5194 1.8289 9.9677 0.60275 14.243-2.7847 3.6376-2.7642 4.3462-5.965 2.2204-7.8355l10.157-7.0041c3.543 0.6237 8.4089-0.20828 11.527-2.12 3.6376-2.0991 3.4958-4.6763-0.0247-5.7777-1.0393-0.29064-2.2441-0.43671-3.5432-0.43671zm13.201 8.8665 0.17683 67.519h11.639v-27.149h9.2812c7.2895 0 12.804-2.1312 15.857-6.5245 2.1735-2.4039 4.1853-6.9883 4.1853-12.951 0-3.4603-0.53085-6.6761-1.6108-9.6227l-2e-3 -0.0033c-1.0498-2.9256-2.4766-5.2926-4.3567-7.0321l-2e-3 -0.0017c-1.8622-1.7526-4.1995-2.9438-6.884-3.5495-1.9771-0.48206-4.5761-0.68491-7.9328-0.68491zm32.853 6.4901h4.5e-4l6e-3 0.0068zm-94.001 0.70939c-2.74 0-6.8501 1.7045-10.133 4.3233v-4.29e-4c-3.9683 3.3045-5.4324 6.921-3.1648 8.1472 2.5037 1.3509 8.078-0.43649 12.259-4.0317 4.3226-3.5125 5.2908-7.1288 2.5745-8.2095-0.44857-0.16653-0.94462-0.22888-1.5352-0.22888zm95.021 0.38561c0.32493 0.40164 0.63657 0.84268 0.93316 1.3243-0.29667-0.48173-0.60815-0.92259-0.93316-1.3243zm-3.0231 3.2798c0.35488 0.41543 0.68221 0.87488 0.9867 1.3771-0.30449-0.50224-0.63182-0.96169-0.9867-1.3771zm-19.19 0.17434h9.2339c2.8936 0 4.8788 0.26105 5.5283 0.4921 1.3454 0.50368 1.953 1.0836 2.8926 2.9002l6e-3 0.01117 6e-3 0.0099c0.68984 1.2858 0.67104 4.3197 0.68883 6.1638v0.0018c0.0381 3.52-1.1601 5.1431-1.9522 6.0555-1.6103 1.8549-2.936 2.6568-6.8632 2.6568h-9.3941zm21.667 6.1779c0.0413 0.68087 0.039 1.3277 0.027 1.9019 0.012-0.57417 0.0142-1.221-0.027-1.9019zm-3e-3 3.37c7e-3 0.53412-0.0156 1.0419-0.0594 1.524-0.0437 0.4821-0.10945 0.93841-0.19346 1.3698 0.084-0.4314 0.14978-0.88772 0.19346-1.3698 0.0437-0.4821 0.0651-0.98986 0.0594-1.524zm-62.683 3.1562c-3.7556 0-7.8415 1.3925-10.818 3.9489h0.027c-4.6769 4.1567-4.9603 9.8305-0.49627 12.74 4.606 3.1175 12.401 2.0576 17.195-2.3901 4.8422-4.323 4.7004-10.101-0.0742-12.907-1.677-0.93532-3.7084-1.3922-5.8343-1.3922zm-30.963 0.2701c-3.2832 0-7.2512 1.6625-10.275 4.4891l-0.02385 0.02104c-4.1099 4.0112-5.0546 9.0825-1.9131 11.369 3.354 2.4732 9.779 0.99737 14.172-3.3464 4.5351-4.3022 5.0785-9.5395 1.5118-11.701-0.96842-0.56086-2.1498-0.83134-3.4726-0.83134zm-23.029 1.8499c-2.5037 0-6.1178 1.9953-9.1885 5.2375l0.04679-0.02104c-3.6139 4.0113-5.1493 8.7291-3.2598 10.537 1.2992 1.2678 3.7557 1.0185 6.4012-0.43671l0.66185 7.1286c-1.4172 0.83132-2.7872 2.0158-3.9918 3.4499-3.5666 4.4892-4.4406 10.33-1.9131 13.343l-5.4802 6.9002c-2.8108-2.5771-7.157-1.039-10.062 3.6165-2.8108 4.7594-3.1886 11.265-0.77928 14.798 1.5826 2.0991 3.8737 2.7018 6.165 1.8289l1.9131 7.087c-0.99203 0.72739-1.8897 1.7254-2.6456 2.9724-2.7872 4.988-2.1728 12.428 1.4411 16.959 3.921 4.5308 9.7549 4.4476 12.991-0.60247 3.5431-5.1752 2.8344-13.343-1.559-17.957-2.551-2.7227-5.7867-3.4082-8.5739-2.2651l-1.9131-7.0664c1.0393-0.74859 2.0311-1.8083 2.9286-3.2008 3.1652-4.6971 3.6378-11.119 1.2522-14.756l5.6687-7.1497c3.1888 1.8913 8.1965 0.33234 11.787-4.115 4.2517-4.9881 4.7947-11.369 1.3934-14.174-1.7716-1.4549-4.299-1.5587-6.8736-0.51916l-0.70847-7.3575c1.0629-0.76902 2.1021-1.7039 3.0942-2.7847 4.2281-4.4476 5.4564-9.3527 2.9763-10.995-0.47244-0.31185-1.0863-0.45732-1.7714-0.45732zm113.96 2.826c-0.25349 0.292-0.51985 0.57029-0.80042 0.83392 0.28057-0.26362 0.54693-0.54192 0.80042-0.83392zm-1.6868 1.5794c-0.62235 0.46586-1.3094 0.86806-2.0751 1.1972-0.38286 0.16457-0.78548 0.31109-1.2094 0.438-0.42395 0.12691-0.86956 0.23427-1.3381 0.3212-0.46854 0.08692-0.96004 0.15333-1.4767 0.19796-0.51663 0.04462-1.0583 0.06742-1.6265 0.06742 0.56823 0 1.1099-0.02279 1.6265-0.06742 0.51664-0.04462 1.0081-0.11103 1.4767-0.19796 0.46853-0.08692 0.91414-0.19429 1.3381-0.3212 0.42394-0.12691 0.82656-0.27343 1.2094-0.438 0.76571-0.32914 1.4527-0.73134 2.0751-1.1972zm28.897 4.2387c-2.7823 0-5.426 0.40437-7.9057 1.2191-8.7e-4 3.82e-4 -3e-3 0.0013-4e-3 0.0018-2.3989 0.76471-4.3693 1.7271-5.8936 2.9522-1.95 1.5218-3.5032 3.4511-4.6343 5.7322l-2e-3 0.0033-2e-3 3e-3c-1.111 2.2729-1.6634 4.7622-1.6634 7.4073 0 2.908 0.6749 5.6304 2.0269 8.0888l7e-3 0.01117 6e-3 0.0116c1.4026 2.4486 3.4741 4.4093 6.1087 5.8086l0.0116 0.0065 0.0103 0.0047c2.6595 1.3565 7.0493 2.8333 13.366 4.5737l2e-3 0.0018c4.6851 1.2862 5.208 1.2988 6.506 1.8516 2.093 0.88901 2.7549 1.7507 2.7549 3.3193 0 2.1744-0.24634 3.2463-1.8758 4.76-1.5229 1.382-3.9994 2.1891-7.6916 2.1891-3.6239 0-6.2161-0.88241-8.074-2.5528-2.9e-4 -2.51e-4 2.9e-4 -0.0019 0-0.0019-1.6401-1.5007-3.0383-5.2683-3.4879-8.7703l-0.19527-1.524-11.504 1.9753 0.22812 1.3986c0.98239 6.038 3.1584 11.843 7.0383 15.214l6e-3 6e-3c3.8091 3.279 9.2378 4.8334 16.037 4.8334 4.1601 0 7.9574-0.78814 11.323-2.3828l7e-3 -2e-3 6e-3 -4e-3c3.3674-1.6329 6.0088-3.9712 7.8036-6.9449l2e-3 -3e-3c1.8022-2.9689 2.7225-6.1806 2.7225-9.5398 0-3.2639-0.47879-4.6092-1.8708-6.7989-1.5079-2.3721-3.6436-4.2086-6.2954-5.4273-2.5587-1.2257-6.7825-2.6674-12.85-4.4354l-9e-3 -0.0033c-4.1516-1.2354-6.7364-2.0662-7.3852-2.327-1.2886-0.57237-2.1264-1.2398-2.629-1.9624l-7e-3 -0.0094-7e-3 -0.0099c-0.52974-0.73514-0.77748-1.4999-0.77748-2.4442 0-1.4937 0.57819-2.6876 2.0049-3.8918 1.2387-1.0455 3.6682-1.7627 7.4059-1.7627 3.0732 0 5.2056 0.71188 6.6698 2.0011l6e-3 0.0051 6e-3 0.0047c1.5434 1.3355 2.4943 3.1702 2.84 5.7468l0.19709 1.4785 11.394-1.6955-0.21417-1.4183c-0.55906-3.6959-1.5814-6.7257-3.1684-9.076l-2e-3 -3e-3c-1.6132-2.4234-4.1081-4.2986-7.3262-5.63l-6e-3 -0.0018c-3.2042-1.3381-6.8871-1.9865-11.013-1.9865zm14.083 7.2313c0.66986 0.59908 1.233 1.2475 1.6971 1.9452l4e-3 0.0047 4e-3 0.0051c0.53352 0.78901 0.99323 1.7474 1.388 2.8444 2e-3 0.0044 3e-3 0.0094 5e-3 0.01374-2e-3 -0.0045-3e-3 -0.0093-5e-3 -0.01374-0.39484-1.0972-0.85489-2.0553-1.3885-2.8444l-4e-3 -0.0051-4e-3 -0.0047c-0.46406-0.69757-1.027-1.3463-1.6967-1.9452zm-16.377 0.58142c-0.91041 0.09361-1.7603 0.23694-2.5475 0.43628 0.78725-0.19932 1.6371-0.34268 2.5475-0.43628zm-4.7207 1.2084c-0.66038 0.31726-1.2563 0.69667-1.7862 1.1439 0.52995-0.44726 1.1258-0.82671 1.7862-1.1439zm-1.7867 1.1439c-1.9319 1.6306-3.0316 3.7561-3.0316 6.065 0 0.91938 0.17426 1.8138 0.51518 2.6477-0.34105-0.83412-0.51563-1.7282-0.51563-2.6477 0-2.309 1.1001-4.4344 3.0321-6.065zm-104.05 2.3274c-3.7556 0-7.8659 1.7253-10.889 4.9052h0.0238c-4.5588 4.9881-4.8892 11.805-0.56692 15.318 4.5351 3.741 12.235 2.66 17.124-2.6606 5.0075-5.2582 4.9841-12.345 0.16558-15.816-1.6771-1.1846-3.7082-1.746-5.8577-1.746zm-47.808 0.27053c-2.0549 0-4.8184 1.974-7.1332 5.2371l0.0234 0.02104c-2.9762 4.5309-4.2752 10.08-2.8107 12.532 1.7479 2.598 5.8814 1.0394 9.2119-3.8239 3.5666-4.9049 4.6771-10.849 2.575-13.177-0.4963-0.52002-1.134-0.78969-1.8663-0.78969zm178.37 0.99366c0.16821 0.62078 0.32127 1.2722 0.45937 1.9525h-4.4e-4c-0.13806-0.68009-0.29078-1.3319-0.45893-1.9525zm-95.723 2.8749c-3.8738 0-7.8654 1.4756-10.7 4.2606l-0.0482 0.05926c-4.8895 4.9049-4.6531 11.951 0.59031 15.837 0 0 0.0248 5.4e-5 0.0248 0.02362l-8.9524 9.0825c-5.4564-4.032-13.534-2.9721-18.188 2.2862-4.5824 5.3414-4.1812 13.114 0.99165 17.479 5.3619 4.5101 13.724 3.845 18.613-1.621 1.4409-1.5795 2.4092-3.3878 2.9524-5.2375l13.156 1.9332c-0.49631 4.0736 1.1338 8.2923 4.7949 11.202l-7.4401 8.3134c-6.4011-4.9049-15.637-4.2603-20.621 1.4136-1.4645 1.6419-2.3621 3.5536-2.7873 5.5488l-10.346-2.5563c0.1893-4.0528-1.4645-8.2719-4.8422-11.161-5.3147-4.6763-12.85-3.9902-16.865 1.268-3.7556 5.1751-2.8342 13.031 2.0553 17.666 5.1728 4.7802 12.708 4.5932 16.889-0.51916 1.37-1.6419 2.2202-3.5748 2.5745-5.6115l10.322 2.5357c-0.28312 4.1775 1.5587 8.5419 5.338 11.555 6.2358 4.8841 15.424 4.5726 20.55-0.85194 4.9366-5.1751 4.4172-13.052-0.92101-18.165l7.5584-8.4384c6.165 3.8033 14.716 2.8681 19.7-2.3901 5.3618-5.6116 4.5823-13.966-1.7008-18.663-6.2122-4.6347-15.519-3.866-20.81 1.6833-1.559 1.6627-2.5745 3.5543-3.0942 5.5287l-13.133-1.9328c0.54322-3.6787-0.61397-7.4407-3.3776-10.163l9.1408-9.2697c5.3619 2.889 12.779 1.7876 17.29-2.8264 4.9839-5.0088 4.4877-12.179-1.0632-16.003-2.2203-1.5172-4.9129-2.2656-7.6529-2.2656zm66.917 2.7396c0.1629 0.32344 0.35224 0.63603 0.56736 0.93569 0.22208 0.31819 0.47242 0.61835 0.74913 0.90133-0.27679-0.28304-0.52744-0.58306-0.74959-0.90133-0.215-0.29949-0.40405-0.61243-0.5669-0.93569zm3.2777 3.3318c0.37438 0.21591 0.77122 0.41575 1.1887 0.59989-0.41751-0.18413-0.81433-0.38398-1.1887-0.59989zm5.7816 9.0915c0.91756 0.27848 1.9706 0.57416 3.006 0.86741-1.0354-0.29326-2.0884-0.58891-3.006-0.86741zm19.05 0.6132c0.57979 0.58112 1.0951 1.2283 1.5514 1.9461 0.33315 0.52403 0.58903 0.92363 0.78558 1.2762-0.19659-0.35268-0.45275-0.75197-0.78602-1.2762-0.45626-0.71773-0.97123-1.365-1.5509-1.9461zm-13.458 0.9709c1.939 0.51693 3.3539 0.88273 4.1632 1.1294-0.80931-0.2466-2.2242-0.61241-4.1632-1.1294zm7.4981 2.7087c0.27539 0.20219 0.53352 0.41724 0.77163 0.64498-0.23807-0.22764-0.49634-0.44286-0.77163-0.64498zm8.5492 0.0468c0.35395 0.81354 0.39189 1.5783 0.39189 3.5139 0 2.8622-0.75901 5.5274-2.3145 8.0888v2e-3h-4.4e-4v-2e-3c1.5554-2.5614 2.3144-5.2266 2.3144-8.0888 0-1.9352-0.0377-2.7005-0.39143-3.5139zm-7.7766 0.59903c0.23754 0.22725 0.45524 0.46715 0.6524 0.71798-0.19724-0.25092-0.41474-0.49065-0.6524-0.71798zm0.6641 0.73258c0.19444 0.24884 0.3681 0.50882 0.51967 0.77895-0.15158-0.27013-0.32522-0.53012-0.51967-0.77895zm-149.32 0.7154c-3.3304 0-6.8499 1.7664-9.3536 5.0087h-8.7e-4c-3.8973 5.279-3.8735 12.741 0.11878 16.835 4.2753 4.3022 11.267 3.45 15.542-1.9744 4.5115-5.5908 4.3228-13.551-0.35365-17.604-1.7007-1.538-3.7795-2.2656-5.9526-2.2656zm123.73 0.2877h8.7e-4c0.22887 1.2856 0.52785 2.5764 0.93496 3.7998 0.40704 1.2233 0.92171 2.3793 1.5824 3.3954-0.66075-1.0161-1.1753-2.1721-1.5824-3.3954-0.40716-1.2235-0.70697-2.5142-0.93586-3.7998zm2.5187 7.1956c0.22019 0.33856 0.45653 0.66177 0.71045 0.9666-0.25394-0.30481-0.49025-0.62804-0.71045-0.9666zm0.7109 0.96704c0.25408 0.30495 0.52597 0.59172 0.81663 0.85752l-8.7e-4 -4.2e-4c-0.29051-0.26567-0.56178-0.55232-0.81574-0.8571zm0.82518 0.86525c0.31364 0.28269 0.64283 0.54699 0.98625 0.79312-0.34351-0.24616-0.67253-0.51038-0.98625-0.79312zm26.721 0.24348h4.5e-4c-0.74962 1.2425-1.66 2.3418-2.7455 3.3064 1.0854-0.96463 1.9955-2.064 2.745-3.3064zm-6.7661 0.12109c-0.2783 0.25251-0.57309 0.4873-0.88277 0.70595 0.30962-0.2186 0.60454-0.45353 0.88277-0.70595zm-18.964 0.43242c0.34311 0.24562 0.70056 0.47323 1.0722 0.68276-0.37157-0.20948-0.72915-0.43721-1.0722-0.68276zm18.049 0.2963c-0.30758 0.21527-0.63042 0.4139-0.9678 0.59687 0.33738-0.18296 0.66022-0.3816 0.9678-0.59687zm-16.977 0.38646c0.37275 0.21015 0.75919 0.40249 1.1595 0.5767-0.40029-0.1742-0.78671-0.36655-1.1595-0.5767zm15.973 0.23016c-0.34219 0.18383-0.69916 0.35204-1.0708 0.5037 0.37178-0.15168 0.72857-0.31982 1.0708-0.5037zm1.0344 4.8231c-0.75133 0.30161-1.5274 0.5609-2.3298 0.77723 0.8023-0.21634 1.5784-0.4756 2.3298-0.77723zm-16.808 0.61793c1.014 0.28633 2.1028 0.51073 3.2692 0.67118-1.1663-0.16047-2.2553-0.38486-3.2692-0.67118zm11.991 0.67975c-0.85555 0.13032-1.7382 0.21746-2.6492 0.26108 0.91098-0.0436 1.7937-0.13074 2.6492-0.26108zm-28.212 1.8705c-3.8738 0-7.7239 1.4548-10.44 4.3229l-0.0234-0.0207c-4.984 5.2582-4.2518 13.135 1.6297 17.583 5.8342 4.3853 14.479 3.679 19.392-1.5377 4.8185-5.2166 4.1097-12.948-1.5829-17.375-2.5982-1.9952-5.7869-2.972-8.9757-2.972zm-152.19 2.0367c-1.6534 0-3.3071 1.434-4.4408 4.0528l-4.5e-4 0.021c-1.7007 4.5516-1.4171 11.057 0.638 14.84 2.362 4.0113 5.9761 3.8863 8.0074-0.62393 2.3385-4.7803 1.9838-12.096-0.75588-15.941-1.0157-1.6003-2.22-2.3484-3.4483-2.3484zm192.2 4.8635c-3.3778 0-6.7558 1.4131-9.1651 4.1773-4.5351 5.1127-3.9682 12.72 1.2283 16.897 5.0311 4.032 12.495 3.2005 16.771-1.8499 4.1099-4.9672 3.6137-12.2-1.1104-16.398-2.2203-1.8913-4.96-2.8264-7.7235-2.8264zm-67.626 21.364c-4.2281 0-8.4093 1.5588-11.338 4.614l0.072-0.0404c-5.1728 5.4037-4.275 13.447 1.9608 17.978 4.2989 3.076 10.062 3.72 14.952 2.0573l4.1335 9.4148c-2.3857 0.74783-4.5822 1.9745-6.3301 3.6788-1.1102 1.0599-1.9607 2.2032-2.5511 3.4087l-12.07-1.621c-0.14157-3.4085-2.055-6.9003-5.6453-9.4359-6.5429-4.7179-15.873-4.3227-20.809 0.74803-4.7005 4.8633-3.2598 12.366 2.9997 16.793 6.2831 4.3022 15.235 4.1568 20.172-0.43672 1.866-1.725 2.9291-3.8452 3.2125-6.0482l11.527 1.5588c-0.99203 3.4085 1.2e-4 7.025 2.7873 9.7476l-6.3778 5.7988c-6.3539-2.7642-14.408-2.0784-18.872 1.8705-4.8186 4.1151-3.4251 10.371 2.9052 14.049 6.2122 3.4501 15.07 3.2629 20.101-0.45732 5.1965-4.0112 4.5117-10.412-1.8659-14.257-0.21234-0.12491-0.40181-0.24893-0.61415-0.35341l6.0471-5.5076c0.23621 0.18695 0.49616 0.35341 0.75543 0.51916 4.0154 2.5148 9.4009 2.993 14.149 1.6421l3.2125 7.3159c-2.3148 0.66534-4.4879 1.7249-6.2594 3.1798-5.1256 4.0736-4.6059 9.6227 0.94486 12.366 5.1965 2.5356 13.393 1.6003 18.495-2.12 5.0784-3.9281 5.2912-9.4771 0.11789-12.387-3.1415-1.8082-7.4171-2.2656-11.503-1.4759l-3.2832-7.461c1.7243-0.68575 3.3068-1.6216 4.6532-2.8062 1.8897-1.7043 3.0706-3.6992 3.5666-5.7567l10.724 1.4338c-1.3936 3.7202-0.28302 7.5238 3.2598 9.6854 4.8186 2.8889 12.589 1.5585 17.526-2.9307 4.8658-4.6139 5.2438-10.911 0.638-14.153-4.8658-3.4084-13.062-2.2446-18.211 2.7018-1.0629 0.99762-1.8893 2.0574-2.5034 3.1381l-11.196-1.4965c0.23621-3.3669-1.3465-6.6922-4.7715-8.9992-0.1893-0.1249-0.40145-0.27015-0.59076-0.39506l8.1253-7.4198s0.16543 0.12516 0.23622 0.18722c5.6925 3.9904 14.29 2.9719 19.416-2.2656 5.0075-5.2375 4.7713-12.886-0.70864-17.105-5.6453-4.3646-14.574-3.5125-19.77 1.9328-4.7713 4.9257-4.7949 11.764-0.49627 16.128l-8.4322 7.6899c-3.3541-1.538-7.299-1.8915-10.984-1.1225l-4.228-9.6227c1.4881-0.70697 2.8578-1.6419 4.0152-2.8058 5.3146-5.3621 4.5826-13.447-1.6296-18.061-2.8108-2.0783-6.2356-3.0969-9.6605-3.0969zm-119.26 0.18852c-1.7952 0-3.3778 1.143-4.2991 3.3876l0.02385-0.0206c-1.5117 4.3438-0.16554 11.223 3.0469 15.816 3.5667 4.6971 8.031 5.3415 10.062 1.2886 2.2676-4.4684 0.87426-12.158-3.1648-17.022-1.8424-2.3277-3.874-3.4499-5.6691-3.4499zm22.014 8.8952c-2.6219 0-4.8656 1.1849-6.2828 3.5126v-0.021c-2.5746 4.5308-1.016 11.701 3.5428 16.502 4.7949 4.7179 11.173 5.3413 14.243 1.1014 3.354-4.5515 1.8184-12.491-3.4726-17.416-2.5274-2.4733-5.409-3.6788-8.0308-3.6788zm175.57 1.5802c-4.1669-0.0698-8.386 1.4098-11.219 4.1863-4.9367 4.8841-4.2516 12.324 1.6062 16.606 5.9051 4.3645 14.669 3.7828 19.511-1.2676 4.4406-4.5932 4.3331-11.741-0.48592-16.044l-1.393-1.0808c-2.3414-1.5789-5.1681-2.3522-8.0191-2.4zm-143.92 6.6709c-3.4014 0-6.7078 1.3095-8.8101 3.8866v0.0205c-3.732 4.7387-2.2679 12.138 3.2121 17.084l-3.3538 3.9905c-5.9051-4.6763-12.944-5.1749-15.779-1.1637-2.6219 3.7618-0.2362 10.495 5.2201 15.193 5.5745 4.51 12.637 5.6534 15.802 2.245 1.181-1.2055 1.7241-2.806 1.7241-4.5934l6.5902 2.0161c-0.307 3.4709 1.9605 7.4818 6.165 10.412 6.0941 4.032 14.338 4.6348 18.519 1.1848 4.3698-3.7826 2.8109-10.516-3.6611-14.922-3.5903-2.5356-7.8423-3.741-11.598-3.6371l-4.0156-7.3992c1.3227-0.54044 2.5039-1.3299 3.496-2.3691 4.5588-4.8841 3.1414-13.073-3.307-18.144-3.1415-2.5357-6.8026-3.8033-10.204-3.8033zm-44.265 11.119c-1.6534 0-2.9761 0.78967-3.6611 2.3484-1.3464 3.4501 0.96843 9.8722 5.0311 14.382 4.417 4.6347 9.4955 6.048 11.338 2.9097 2.1495-3.4501-0.04918-10.433-5.0073-15.38-2.6691-2.8266-5.4802-4.2606-7.7006-4.2606zm40.061 10.953c3.8974 2.7434 8.5741 3.7204 12.495 2.7852l3.8267 7.0247c-2.2676 0.3739-4.2519 1.2885-5.6219 2.7641-0.70865 0.72739-1.2045 1.5382-1.5352 2.4111l-7.1098-2.1616c-0.56709-2.9096-2.4565-6.1103-5.4563-8.7913zm157.81 0.60289c-3.3068 0-7.228 1.7458-10.228 4.8841l-0.0238 0.0206c-4.1572 4.1775-5.1258 9.228-2.7401 12.034l-7.8653 6.5468c-4.2989-1.0807-10.558 0.62364-14.976 4.3645-5.2201 4.219-5.5508 9.228-1.1811 11.265 4.0863 1.8082 11.196 0.14524 16.157-3.6788 4.8422-3.9697 5.8814-8.9579 2.0548-11.14-0.0742-0.0393-0.14159-0.0831-0.21237-0.10349l7.3694-6.1311c3.5667 1.9952 9.6609 0.18679 13.889-4.0322 4.1808-4.3645 5.1966-10.017 2.0787-12.657-1.1574-0.93525-2.669-1.372-4.3225-1.372zm-184.85 13.675c-1.4172 0-2.527 0.4786-3.1176 1.4759-1.3227 2.5771 1.6768 8.0639 6.5663 12.366 5.1256 4.219 10.866 6.1312 12.85 4.0528 2.3149-2.4108-0.47244-8.3965-6.2594-13.094-3.6139-3.1383-7.3934-4.8012-10.039-4.8012zm188.51 8.5006c-2.8581 0-6.968 1.8706-10.298 4.9258v0.0206c-4.4643 3.9072-5.7158 8.1678-2.8341 9.4148 2.6455 1.0392 8.0074-1.0181 12.094-4.5513 4.0627-3.6787 5.5977-7.7526 3.3538-9.2074-0.59096-0.39511-1.3936-0.60246-2.3149-0.60246zm-161.26 3.1175c-2.1259 0-3.921 0.5405-4.9839 1.7043-2.5746 2.5771 0.0494 7.7521 5.7398 11.659 5.7398 3.6995 12.802 5.0298 15.897 2.8268 3.425-2.4733 1.2283-7.9603-5.1256-12.138-3.8028-2.6395-8.1019-4.0528-11.527-4.0528zm34.486 8.9158c-3.1652 0-5.9994 0.72753-7.8418 2.1616h-0.0472c-3.8738 2.8474-1.7716 7.8353 4.417 11.181 3.8028 1.9328 8.409 2.8681 12.377 2.7019l2.669 3.1175c-1.7242 0.18695-3.2594 0.58228-4.3931 1.1641-3.5904 1.725-1.8899 4.7592 3.779 6.8792 5.4091 1.8289 12.732 2.2445 16.771 0.8936 4.11-1.6627 3.2359-4.8008-2.4094-6.9831-3.4958-1.4549-7.795-2.1821-11.551-2.099l-2.7162-3.2008c1.4881-0.24902 2.858-0.66543 3.9445-1.2887 4.5115-2.785 3.0942-7.9393-3.307-11.431-3.5903-2.0575-7.8654-3.0969-11.692-3.0969zm37.438 6.5884c-3.921 0-7.7945 0.93552-10.464 2.7229v-0.021c-4.5351 2.9513-3.3541 7.2954 2.2677 9.727 5.4799 2.1822 13.487 1.8705 18.14-0.72743 4.9131-2.8889 4.6534-7.2954-0.96825-9.8309-2.5746-1.2678-5.7874-1.8705-8.9761-1.8705zm67.389 0.43671c-3.5194 0-8.5271 1.7041-12.377 4.4268v-0.021c-4.795 3.2007-5.6688 6.4429-2.2911 7.2742 3.236 0.60249 9.3063-1.2052 13.865-4.0734 4.417-2.9928 6.0231-6.2974 3.1414-7.2742-0.66174-0.2286-1.4408-0.33238-2.3383-0.33238zm-30.211 1.247c-4.3226 0-9.2829 1.3301-12.755 3.6994v-0.0206c-5.1256 3.2214-4.9368 7.1284-0.16558 8.7703 4.6296 1.3717 12.188 0.16677 17.149-2.6808 4.9839-3.0968 5.7634-7.0666 1.3228-8.8124-1.559-0.64412-3.4722-0.95586-5.5508-0.95586zm-93.537 2.9509c-1.7715 0-3.2359 0.29156-4.228 0.91464v0.021c-2.6218 1.6004 0.0947 5.2164 5.8815 8.1884 5.6689 2.6812 12.802 4.0322 16.038 2.8891 3.5195-1.4549 1.5592-5.2377-4.8656-8.4384-4.2518-2.307-9.165-3.5748-12.826-3.5748zm69.258 10.953c-4.0627 0-8.3848 0.76914-11.337 2.2239h-4e-3c-4.4406 2.016-3.7318 4.6558 1.3939 5.9443 4.8186 1.0184 12.188 0.47728 16.747-1.2058 4.7004-1.9744 4.9363-4.6969 0.0739-6.0478-1.9604-0.6237-4.3698-0.91466-6.8736-0.91466z" fill="#00bde7" stop-color="#000000" stroke-width=".85058"/>
 </g>
</svg>
